<svg xmlns="http://www.w3.org/2000/svg" xmlns:xlink="http://www.w3.org/1999/xlink" viewBox="0 0 102.63 97.98"><defs><style>.cls-1{fill:none;}.cls-2{fill:#18627d;}.cls-3{clip-path:url(#clip-path);}.cls-4{fill:#fff8e6;}.cls-5{fill:#fdb813;}.cls-6{fill:#f85b30;}</style><clipPath id="clip-path"><circle class="cls-1" cx="53.64" cy="48.99" r="48.99"/></clipPath></defs><title>Asset 1</title><g id="Layer_2" data-name="Layer 2"><g id="Layer_1-2" data-name="Layer 1"><circle class="cls-2" cx="53.64" cy="48.99" r="48.99"/><g class="cls-3"><polygon class="cls-4" points="52.36 61.22 39.04 50.99 34.36 53.26 26.71 56.95 22.75 57.21 22.75 73.81 57.95 75.98 68.04 61.56 52.36 61.22"/><path class="cls-4" d="M67.79,62.15,58,76,30.59,74.29c.68-1.21.61-2.49.83-3.94a51.86,51.86,0,0,0,.76-8.06c0-3,.09-6,.31-8.95L39,51,52.36,61.22Z"/><path class="cls-4" d="M62.93,76.41l18.25-9.87,7.44-11.17a76.81,76.81,0,0,0,2.63-8.2c.25-1.33-2-3.93-5.06-.79a37.8,37.8,0,0,0-4.15,6l-5.16,5.36-8.43,3.79-16.09-.35,3,14.6Z"/><polygon class="cls-5" points="23.05 77.81 2.5 77.85 0 49.54 24.07 50.69 23.05 77.81"/><path class="cls-6" d="M54.54,58.83a4.2,4.2,0,0,1-2.76-.14L50,58.12c-1.84-.59-3.05-1.93-2.71-3l.94-5.06c.34-1.06,2.68-1,4.52-.46l1.75.57c1.84.59,4.73,2.15,4.39,3.21C58.91,53.39,55.11,58.63,54.54,58.83Z"/><path class="cls-6" d="M69.9,58.83a4.2,4.2,0,0,0,2.76-.14l1.76-.57c1.83-.59,3-1.93,2.71-3l-.94-5.06c-.34-1.06-2.68-1-4.52-.46l-1.75.57c-1.84.59-4.74,2.15-4.39,3.21C65.53,53.39,69.33,58.63,69.9,58.83Z"/><path class="cls-6" d="M71.53,28.67c-1-.82-.67-1.6.41-2.3,4.55-3,7.31-2.54,7.61-2.43.54.19.82.76.67,1.57L79,32.31c-.23,1.27-1.21,1.63-2.2.8Z"/><ellipse class="cls-6" cx="62.22" cy="40.54" rx="19.39" ry="15.36"/><path class="cls-6" d="M69.39,28.7c-1.11-.65-.94-1.47,0-2.34,4-3.7,6.77-3.75,7.08-3.7.56.1.93.61.93,1.43l0,6.91c0,1.29-.91,1.81-2,1.17Z"/><path class="cls-2" d="M76.63,36.15a1.25,1.25,0,1,0-1.25,1.25A1.25,1.25,0,0,0,76.63,36.15Z"/><path class="cls-6" d="M56.62,27.87a.35.35,0,0,1-.35-.26.38.38,0,0,1,.25-.47,20.1,20.1,0,0,1,11.4,0,.38.38,0,0,1-.21.72,19.35,19.35,0,0,0-11,0Z"/><path class="cls-6" d="M84.08,42.1a3.35,3.35,0,0,1-2,3.1L79.69,46c-1.11.35-2-.48-2-1.84V37c0-1.36.91-2.18,2-1.84l2.38.75a3.37,3.37,0,0,1,2,3.1Z"/><path class="cls-6" d="M47.7,32.28a.24.24,0,0,0,0-.39,4.9,4.9,0,0,0-1.61-.41,4.83,4.83,0,0,1-1.93-.83,2,2,0,0,1-.41-.41A1.64,1.64,0,0,0,45,30a1.4,1.4,0,0,0,.13-1.72A1.2,1.2,0,0,0,43.35,28a2,2,0,0,0-.78,1.22,1.44,1.44,0,0,1-.76-1.35c0-.17-.22-.19-.28-.05-.39.85.25,1.54,1,1.95a2.1,2.1,0,0,0,.09.5,3.55,3.55,0,0,0,2.18,1.86C45.59,32.49,47,32.91,47.7,32.28Zm-4.07-3.13c.16-.32.58-.73.85-.3.43.7-.43.81-1,.75A1.08,1.08,0,0,1,43.63,29.15Z"/><path class="cls-4" d="M33.77,58.53l7.29,2.65,8.08-11.09s4.43-1.87,5.86-2.31c4.79-1.5,4.89-5.74,4.68-6.58-.35-1.44-2.76-.44-2.76-.44L44.07,44.54,26.71,57Z"/><path class="cls-5" d="M66.86,19.38a4.93,4.93,0,1,0-6.3,3A4.92,4.92,0,0,0,66.86,19.38Z"/><path class="cls-6" d="M66.08,19.1a4.1,4.1,0,1,0-5.24,2.48A4.1,4.1,0,0,0,66.08,19.1ZM61,21.17A3.66,3.66,0,1,1,65.67,19,3.67,3.67,0,0,1,61,21.17Z"/><path class="cls-6" d="M61.08,16.08a1.17,1.17,0,0,1,1.66-.76l.18-.53.59.21-.19.54a4.27,4.27,0,0,1,1,.57l-.28.78c-.36-.16-1-.43-1.32-.53s-.55-.17-.67.17l-.05.15c-.1.27,0,.42.3.53l.5.18A1.16,1.16,0,0,1,63.47,19l-.09.26a1.19,1.19,0,0,1-1.7.85l-.18.5-.59-.21.19-.51a3.54,3.54,0,0,1-1-.58l.28-.78c.24.11.83.37,1.41.57.26.09.49.11.58-.16l.07-.18c.08-.22.06-.38-.25-.49l-.48-.17A1.19,1.19,0,0,1,61,16.46Z"/></g></g></g></svg>