<svg xmlns="http://www.w3.org/2000/svg" xmlns:xlink="http://www.w3.org/1999/xlink" viewBox="0 0 99.73 97.98"><defs><style>.cls-1{fill:none;}.cls-2{fill:#18627d;}.cls-3{clip-path:url(#clip-path);}.cls-4{fill:#fdb813;}.cls-5{fill:#fff8e6;}.cls-6{fill:#f85b30;}</style><clipPath id="clip-path"><circle class="cls-1" cx="50.73" cy="48.99" r="48.99"/></clipPath></defs><title>Asset 2</title><g id="Layer_2" data-name="Layer 2"><g id="Layer_1-2" data-name="Layer 1"><circle class="cls-2" cx="50.73" cy="48.99" r="48.99"/><g class="cls-3"><path class="cls-4" d="M55.1,42c0,7.58-18.53,13.38-18.53,26.23,0,9.82,8.3,15.34,18.53,15.34S73.64,78,73.64,68.21C73.64,55.36,55.1,49.56,55.1,42Z"/><path class="cls-5" d="M47.4,23.38l11.12.89s1.74-.08,1.59,1.11A4.93,4.93,0,0,1,54.69,29c-1.21-.07-5.08.05-5.08.05s-3.49,5.44-6.71,7.23l-6.29.15-5-.86,8.31-7.68Z"/><path class="cls-4" d="M50.14,31.42l-.62.28H62.77l-.62-.28A7.54,7.54,0,0,0,66,25.12c0-2.87-2.4-3-3.58-3-1,0-1.86.54-3.09.64-.94.07-1.19-.24-3.22-.29-1.58-.05-2.29.36-3.23.29-1.23-.1-2.11-.65-3.09-.64-1.18,0-3.58.17-3.58,3A7.54,7.54,0,0,0,50.14,31.42Z"/><path class="cls-5" d="M60.2,30a3.55,3.55,0,0,0-.47.06H46.4l-6.64,3.3-20.13,0V52.49H38.25l6.84,3.41,11.58,0h5.17l4.18-.1a2.83,2.83,0,0,0,2.49-3.09,2.86,2.86,0,0,0-2.54-3v-.07a3.29,3.29,0,0,0,0-6.51V43a3.26,3.26,0,0,0,0-6.51v-.12a3.29,3.29,0,0,0-.38-6.52Z"/><rect class="cls-6" y="28.4" width="27.61" height="28.17"/><path class="cls-6" d="M60.16,71.47c-.08,3-1.93,3.9-4.22,3.92l0,1.78-2,0,0-1.8a14.35,14.35,0,0,1-3.59-.7L50.43,72c1.25.14,3.48.28,4.51.31,1.2,0,1.8,0,1.82-1.19v-.52c0-.9-.34-1.26-1.44-1.29l-1.68,0C50.57,69.18,50,66.64,50,65l0-.87c.08-3.53,2.2-4.29,4.26-4.25l0-1.7,2,0,0,1.73a10.88,10.88,0,0,1,3.63.72l-.06,2.63C59,63.19,57,63,55.06,63c-.88,0-1.59.17-1.61,1.07l0,.6c0,.75.21,1.2,1.23,1.22l1.61,0C60,66,60.21,69,60.19,70.18Z"/></g></g></g></svg>